<svg xmlns="http://www.w3.org/2000/svg" viewBox="0 0 82.96 43.88"><defs><style>.cls-1{fill:#dd6564;}</style></defs><g id="Layer_2" data-name="Layer 2"><g id="Layer_1-2" data-name="Layer 1"><g id="Layer_2-2" data-name="Layer 2"><g id="Layer_1-2-2" data-name="Layer 1-2"><path class="cls-1" d="M0,21.68A3,3,0,0,1,.86,20,76.08,76.08,0,0,1,18.2,6.58,51.76,51.76,0,0,1,30.58,1.46,40.85,40.85,0,0,1,47.12.4,53.7,53.7,0,0,1,67.86,8.51a73.43,73.43,0,0,1,14,11.34c1.46,1.53,1.49,2.69,0,4.19a87.17,87.17,0,0,1-10.69,9.07A61.56,61.56,0,0,1,59.29,40,44.28,44.28,0,0,1,43,43.86,42.28,42.28,0,0,1,32.21,42.8a52.23,52.23,0,0,1-14.3-5.65,73.46,73.46,0,0,1-12.35-8.8A42.41,42.41,0,0,1,.67,23.67,2.72,2.72,0,0,1,0,21.68ZM41.63,4.82A17.14,17.14,0,1,0,58.54,22.19V22A17.1,17.1,0,0,0,41.63,4.82ZM23.41,34.51C18.35,26,18.26,17.86,23.27,9.6a7,7,0,0,0-2.72,1.17,77.55,77.55,0,0,0-14,10.36c-.69.63-.7,1,0,1.58a72.4,72.4,0,0,0,11,8.58A52.07,52.07,0,0,0,23.41,34.51Zm36.2-.27c.17,0,.26.09.32.06A72.54,72.54,0,0,0,76.66,22.47c.52-.47.31-.72-.09-1.08a80.64,80.64,0,0,0-7.52-6.3,44.32,44.32,0,0,0-8.33-4.95c-.21-.08-.46-.49-.71-.12s.06.5.21.75a21.78,21.78,0,0,1,2.3,5.42,22.85,22.85,0,0,1,.67,4.8,20.2,20.2,0,0,1-1.33,8.84A39.74,39.74,0,0,1,59.61,34.24Z"/><path class="cls-1" d="M40.49,9.87c2.54-.08,3.45.47,4.19,2.38.51,1.31-.31,2.3-.85,3.34a2.67,2.67,0,0,0,0,2.92,2.68,2.68,0,0,0,2.9,1.41,5.59,5.59,0,0,0,2.12-1c1.56-1.16,4.63.56,4.69,2.71a12.1,12.1,0,1,1-17-10.86C37.77,10.18,39.2,9.55,40.49,9.87Zm-1.83,6.85c-.14-.39.37-1-.08-1.27s-.95.12-1.29.38c-3.18,2.45-4.08,6.17-2.45,9.29a7.29,7.29,0,0,0,9.71,3.5,7.39,7.39,0,0,0,2.93-2.5c.28-.38.64-.84.49-1.27s-.72-.12-1.07-.1a7.7,7.7,0,0,1-8.23-7.13A6.76,6.76,0,0,1,38.66,16.72Z"/></g></g></g></g></svg>