<svg xmlns="http://www.w3.org/2000/svg" viewBox="0 0 73.84 73.76"><defs><style>.cls-1{fill:#dd6564;}</style></defs><g id="Layer_2" data-name="Layer 2"><g id="Layer_1-2" data-name="Layer 1"><g id="Layer_2-2" data-name="Layer 2"><g id="Layer_1-2-2" data-name="Layer 1-2"><path class="cls-1" d="M7.29,12.5V31.94A4.08,4.08,0,0,1,4.92,36C3,37,.23,35.3,0,33.13V3.54A3.47,3.47,0,0,1,3.38,0H32.83a3.56,3.56,0,0,1,3.53,3.59v0a3.87,3.87,0,0,1-4.08,3.67H13l-.21.31L66.42,61.28V41.42a3.71,3.71,0,1,1,7.4-.26V69.68a3.74,3.74,0,0,1-3.38,4.07,3.21,3.21,0,0,1-.62,0H41.27a3.89,3.89,0,0,1-3.65-2.38A3.64,3.64,0,0,1,39.18,67a4.34,4.34,0,0,1,2.52-.56H59.57c.44,0,1.09.28,1.27-.26s-.49-.64-.79-.94c-2.24-2.26-4.46-4.54-6.71-6.78-4.19-4.19-8.41-8.35-12.6-12.55-4.82-4.81-9.61-9.65-14.42-14.48L8,13C7.75,12.85,7.53,12.67,7.29,12.5Z"/></g></g></g></g></svg>