<svg xmlns="http://www.w3.org/2000/svg" viewBox="0 0 66.67 66.58"><defs><style>.cls-1{fill:#dd6564;}.cls-2{fill:#dd6665;}</style></defs><g id="Layer_2" data-name="Layer 2"><g id="Layer_1-2" data-name="Layer 1"><g id="Layer_2-2" data-name="Layer 2"><g id="Layer_1-2-2" data-name="Layer 1-2"><path class="cls-1" d="M46.54,26.23a6.19,6.19,0,0,1-6.06,6.32h0A6.34,6.34,0,0,1,34,26.62,6.43,6.43,0,0,1,40.12,20C43.64,19.91,46.73,23,46.54,26.23Z"/><path class="cls-1" d="M46.55,40.23c.2,3.17-2.81,6.19-6.13,6.22a6.25,6.25,0,1,1-.3-12.5h0a6.23,6.23,0,0,1,6.43,6Z"/><path class="cls-1" d="M20.22,26.17c-.26-3.23,2.92-6.07,6-6.16a6.26,6.26,0,0,1-.1,12.52,6.13,6.13,0,0,1-5.9-6.35Z"/><path class="cls-1" d="M20.22,40.16a6.15,6.15,0,0,1,6-6.21,6.35,6.35,0,0,1,6.38,6.32v.08a6.42,6.42,0,0,1-6.21,6.08C23,46.43,20,43.46,20.22,40.16Z"/><path class="cls-2" d="M17.36,26.23a4,4,0,0,1-3.84,4.16h-.16a4.09,4.09,0,0,1-4.16-4v-.14a4.21,4.21,0,0,1,4.08-4.14A4.12,4.12,0,0,1,17.36,26.23Z"/><path class="cls-2" d="M9.21,40.15a4,4,0,0,1,3.94-4.06h.12A4,4,0,0,1,17.38,40v.11a4.09,4.09,0,0,1-8.17.46C9.21,40.42,9.2,40.28,9.21,40.15Z"/><path class="cls-2" d="M40.3,17.23a4,4,0,0,1-4.07-3.93v-.07a4,4,0,0,1,3.9-4.1h.25a4.05,4.05,0,1,1-.08,8.1Z"/><path class="cls-2" d="M40.34,57.31a4,4,0,0,1,0-8.09,4,4,0,0,1,4.06,3.94v.14a4,4,0,0,1-4,4Z"/><path class="cls-1" d="M13.27,57.31c-2.09.26-4.13-2.12-4.11-4a4.36,4.36,0,0,1,4.13-4.08,4.34,4.34,0,0,1,4.11,4.11A4.12,4.12,0,0,1,13.27,57.31Z"/><path class="cls-1" d="M13.33,17.23c-2.14.22-4.17-2.08-4.16-4a4.37,4.37,0,0,1,4.16-4.1,4.34,4.34,0,0,1,4.07,4.06A4.11,4.11,0,0,1,13.33,17.23Z"/><path class="cls-1" d="M49.39,40.23a3.91,3.91,0,0,1,3.69-4.12h.31a4,4,0,0,1,4.1,3.9v.22a4.15,4.15,0,0,1-4,4.14,4.07,4.07,0,0,1-4.1-4Z"/><path class="cls-1" d="M57.47,13.23c.25,2-2,4-4.12,4a4.32,4.32,0,0,1-4-4.17,4.26,4.26,0,0,1,4.2-4C55.49,9.16,57.7,11.05,57.47,13.23Z"/><path class="cls-1" d="M26.37,49.23a4,4,0,1,1-4,4.12A4,4,0,0,1,26.37,49.23Z"/><path class="cls-1" d="M26.54,9.15a3.84,3.84,0,0,1,3.95,3.73v.27a3.94,3.94,0,0,1-3.76,4.1,5.06,5.06,0,0,1-.55,0,4.12,4.12,0,0,1-3.9-4.13,4,4,0,0,1,4-4Z"/><path class="cls-1" d="M49.39,53.17c-.26-2,2-4,4.16-4a4.08,4.08,0,1,1-.25,8.16C51.29,57.3,49.12,55.33,49.39,53.17Z"/><path class="cls-1" d="M49.39,26.33a4.06,4.06,0,0,1,3.9-4.2h0a4.17,4.17,0,0,1,4.17,3.94,4,4,0,0,1-3.81,4.19h-.19a3.87,3.87,0,0,1-4.09-3.65A2.72,2.72,0,0,1,49.39,26.33Z"/><path class="cls-2" d="M40.29,60.47a3,3,0,0,1,3.08,2.92v0a3.16,3.16,0,0,1-3.09,3.16,3.24,3.24,0,0,1-3-3.13A3.08,3.08,0,0,1,40.29,60.47Z"/><path class="cls-2" d="M40.34,6c-1.54.22-3.12-1.48-3.11-3a3.17,3.17,0,0,1,3-3,3.24,3.24,0,0,1,3.12,3A3.09,3.09,0,0,1,40.34,6Z"/><path class="cls-2" d="M23.4,63.49a3,3,0,0,1,2.94-3.06h.06a3.08,3.08,0,0,1,0,6.15,3,3,0,0,1-3-3Z"/><path class="cls-2" d="M60.62,26.29a3,3,0,0,1,2.93-3.07h.07a3.12,3.12,0,0,1,3,3,3.19,3.19,0,0,1-3,3.12A3.07,3.07,0,0,1,60.62,26.29Z"/><path class="cls-2" d="M3.12,23.23a3,3,0,0,1,3,3,3.08,3.08,0,0,1-2.87,3.09A3.18,3.18,0,0,1,0,26.23,3.08,3.08,0,0,1,3.12,23.23Z"/><path class="cls-2" d="M3.05,43.23a3.07,3.07,0,0,1-3-3.07,3.14,3.14,0,0,1,3.09-3,3,3,0,0,1,3,3,3,3,0,0,1-2.93,3.07Z"/><path class="cls-2" d="M26.4,6c-1.42.24-3.07-1.66-3-3a3.05,3.05,0,0,1,6.1.1A3.15,3.15,0,0,1,26.4,6Z"/><path class="cls-2" d="M63.65,43.23c-1.42.25-3.08-1.67-3.08-3a3.33,3.33,0,0,1,3-3,3.1,3.1,0,0,1,3.1,3,3,3,0,0,1-3,3Z"/></g></g></g></g></svg>