<svg xmlns="http://www.w3.org/2000/svg" viewBox="0 0 65.18 62.82"><defs><style>.cls-1{fill:#dc6463;}</style></defs><g id="Layer_2" data-name="Layer 2"><g id="Layer_1-2" data-name="Layer 1"><g id="Layer_2-2" data-name="Layer 2"><g id="Layer_1-2-2" data-name="Layer 1-2"><path class="cls-1" d="M32.9,53.7C42.63,53.18,50,48.51,54,39.51c3.09-6.94,2.59-14-1.13-20.73-.11-.21-.26-.41-.38-.61-.45-.71-.83-.66-1.14.1s-.63,1.46-.91,2.21c-.86,2.31-3.09,1.82-4.19.49-1.59-1.94-3-4-4.52-6-2-2.67-3.86-5.36-5.79-8a7.39,7.39,0,0,1-.64-1c-1-1.91-.3-3.51,1.79-4a51.41,51.41,0,0,1,6.65-.83C47.15.78,50.54.62,53.9.14a4.84,4.84,0,0,1,3.16.29A2.1,2.1,0,0,1,58.12,3a20.36,20.36,0,0,1-1.67,3.9,1.18,1.18,0,0,0,.19,1.52A29.69,29.69,0,0,1,63.45,20a30.37,30.37,0,0,1,1.3,15.21,35,35,0,0,1-3.86,11.1A32.57,32.57,0,0,1,50.45,57.42a31.82,31.82,0,0,1-20.57,5.27,30.86,30.86,0,0,1-11.13-3A32.51,32.51,0,0,1,1.06,38.32,31.57,31.57,0,0,1,.52,24.51a30.58,30.58,0,0,1,4-10.68,4.76,4.76,0,0,1,6-1.42,4.63,4.63,0,0,1,1.88,5.94,28.6,28.6,0,0,0-2.47,6.32A22.66,22.66,0,0,0,14,44.34C18.65,50.51,25,53.4,32.9,53.7Z"/></g></g></g></g></svg>