<svg xmlns="http://www.w3.org/2000/svg" viewBox="0 0 77.26 59.99"><defs><style>.cls-1{fill:#dc6463;}</style></defs><g id="Layer_2" data-name="Layer 2"><g id="Layer_1-2" data-name="Layer 1"><g id="Layer_2-2" data-name="Layer 2"><g id="Layer_1-2-2" data-name="Layer 1-2"><path class="cls-1" d="M38.65,0h33.1c3.6,0,5.5,1.92,5.5,5.53v49a5.24,5.24,0,0,1-5,5.46h-.32Q38.47,59.93,5,60a5.15,5.15,0,0,1-5-5.28v0C.07,44.14,0,33.6,0,23.06V5.34A5.15,5.15,0,0,1,2.55.53a3.8,3.8,0,0,1,2-.51h34.1ZM5,39c.45,0,.66-.39.91-.69,3-3.48,5.88-7,8.85-10.43,2.58-3,5.23-5.95,7.79-9,1.87-2.19,4.4-2.21,6.22,0C32.15,22.94,35.55,27,38.93,31c2.72,3.25,5.44,6.5,8.13,9.77.52.64.83.72,1.47.07,3-3,6.06-6,9.12-9a3.45,3.45,0,0,1,4.88-.18l.12.12c2.8,2.53,5.57,5.08,8.36,7.62.32.29.67.75,1.09.61s.27-.77.27-1.17V6.38c0-1.57,0-1.57-1.53-1.57H6.42c-1.58,0-1.58,0-1.58,1.57V37.89c0,.38-.13.8.18,1.15Z"/><path class="cls-1" d="M58.27,11a6.5,6.5,0,0,1,6.63,6.39v.19a6.52,6.52,0,0,1-6.24,6.79h-.39A6.69,6.69,0,0,1,57.76,11Z"/></g></g></g></g></svg>